<svg xmlns="http://www.w3.org/2000/svg" xmlns:xlink="http://www.w3.org/1999/xlink" width="200" zoomAndPan="magnify" viewBox="0 0 150 149.999998" height="200" preserveAspectRatio="xMidYMid meet" version="1.2"><defs><clipPath id="a9ff3b6f06"><path d="M 13.769531 47 L 46 47 L 46 112.125 L 13.769531 112.125 Z M 13.769531 47 "/></clipPath><clipPath id="9fc6121814"><path d="M 25 23.625 L 46 23.625 L 46 44 L 25 44 Z M 25 23.625 "/></clipPath></defs><g id="55eb007a5a"><g clip-rule="nonzero" clip-path="url(#a9ff3b6f06)"><path style=" stroke:none;fill-rule:evenodd;fill:#5271ff;fill-opacity:1;" d="M 45.910156 68.144531 L 45.910156 112.125 L 45.847656 112.125 C 34.714844 112.125 25.667969 103.054688 25.667969 91.925781 L 25.667969 68.25 L 13.808594 68.25 L 13.808594 68.1875 C 13.808594 57.058594 22.878906 47.984375 33.988281 47.984375 L 45.910156 47.984375 L 45.910156 68.164062 Z M 45.910156 68.144531 "/></g><g clip-rule="nonzero" clip-path="url(#9fc6121814)"><path style=" stroke:none;fill-rule:nonzero;fill:#5271ff;fill-opacity:1;" d="M 25.667969 23.625 L 45.910156 23.625 L 45.910156 43.890625 L 25.667969 43.890625 Z M 25.667969 23.625 "/></g><g style="fill:#191919;fill-opacity:1;"><g transform="translate(52.234103, 98.881901)"><path style="stroke:none" d="M 1.53125 0 L 1.53125 -34.484375 L 15.328125 -34.484375 L 15.328125 -27.8125 L 8.546875 -27.8125 L 8.546875 -21.109375 L 15.046875 -21.109375 L 15.046875 -14.609375 L 8.546875 -14.609375 L 8.546875 -6.703125 L 15.78125 -6.703125 L 15.78125 0 Z M 1.53125 0 "/></g></g><g style="fill:#191919;fill-opacity:1;"><g transform="translate(68.768012, 98.881901)"><path style="stroke:none" d="M 0.515625 0 L 4.21875 -18.296875 L 1.28125 -34.515625 L 8.03125 -34.515625 L 9.828125 -22.640625 L 11.40625 -34.515625 L 18.1875 -34.515625 L 15.21875 -18.296875 L 18.90625 0 L 11.921875 0 L 9.75 -13.484375 L 7.546875 0 Z M 0.515625 0 "/></g></g><g style="fill:#191919;fill-opacity:1;"><g transform="translate(88.191339, 98.881901)"><path style="stroke:none" d="M 0.609375 0 L 3.9375 -34.484375 L 15.609375 -34.484375 L 18.90625 0 L 12.359375 0 L 11.875 -5.578125 L 7.703125 -5.578125 L 7.3125 0 Z M 8.234375 -11.078125 L 11.359375 -11.078125 L 9.828125 -28.625 L 9.515625 -28.625 Z M 8.234375 -11.078125 "/></g></g><g style="fill:#191919;fill-opacity:1;"><g transform="translate(107.654792, 98.881901)"><path style="stroke:none" d="M 1.53125 0 L 1.53125 -34.484375 L 12.046875 -34.484375 L 14.9375 -13.453125 L 17.828125 -34.484375 L 28.421875 -34.484375 L 28.421875 0 L 22.125 0 L 22.125 -24.84375 L 18.140625 0 L 11.96875 0 L 7.75 -24.84375 L 7.75 0 Z M 1.53125 0 "/></g></g><g style="fill:#191919;fill-opacity:1;"><g transform="translate(53.934795, 111.874625)"><path style="stroke:none" d="M 3.375 0.078125 C 2.832031 0.078125 2.34375 -0.0078125 1.90625 -0.1875 C 1.46875 -0.363281 1.117188 -0.628906 0.859375 -0.984375 C 0.597656 -1.335938 0.460938 -1.757812 0.453125 -2.25 L 2.390625 -2.25 C 2.421875 -1.96875 2.519531 -1.753906 2.6875 -1.609375 C 2.851562 -1.460938 3.066406 -1.390625 3.328125 -1.390625 C 3.597656 -1.390625 3.8125 -1.453125 3.96875 -1.578125 C 4.125 -1.703125 4.203125 -1.875 4.203125 -2.09375 C 4.203125 -2.28125 4.140625 -2.429688 4.015625 -2.546875 C 3.890625 -2.671875 3.734375 -2.769531 3.546875 -2.84375 C 3.367188 -2.925781 3.113281 -3.019531 2.78125 -3.125 C 2.300781 -3.269531 1.90625 -3.414062 1.59375 -3.5625 C 1.289062 -3.71875 1.023438 -3.941406 0.796875 -4.234375 C 0.578125 -4.523438 0.46875 -4.910156 0.46875 -5.390625 C 0.46875 -6.085938 0.71875 -6.632812 1.21875 -7.03125 C 1.726562 -7.425781 2.390625 -7.625 3.203125 -7.625 C 4.035156 -7.625 4.703125 -7.425781 5.203125 -7.03125 C 5.710938 -6.632812 5.988281 -6.082031 6.03125 -5.375 L 4.046875 -5.375 C 4.035156 -5.613281 3.945312 -5.800781 3.78125 -5.9375 C 3.613281 -6.082031 3.398438 -6.15625 3.140625 -6.15625 C 2.921875 -6.15625 2.742188 -6.09375 2.609375 -5.96875 C 2.472656 -5.851562 2.40625 -5.6875 2.40625 -5.46875 C 2.40625 -5.226562 2.519531 -5.039062 2.75 -4.90625 C 2.976562 -4.769531 3.335938 -4.625 3.828125 -4.46875 C 4.304688 -4.300781 4.695312 -4.140625 5 -3.984375 C 5.300781 -3.835938 5.5625 -3.617188 5.78125 -3.328125 C 6.007812 -3.046875 6.125 -2.679688 6.125 -2.234375 C 6.125 -1.804688 6.015625 -1.414062 5.796875 -1.0625 C 5.578125 -0.71875 5.257812 -0.441406 4.84375 -0.234375 C 4.4375 -0.0234375 3.945312 0.078125 3.375 0.078125 Z M 3.375 0.078125 "/></g></g><g style="fill:#191919;fill-opacity:1;"><g transform="translate(61.28538, 111.874625)"><path style="stroke:none" d="M 6.0625 -7.515625 L 6.0625 -6.046875 L 4.078125 -6.046875 L 4.078125 0 L 2.25 0 L 2.25 -6.046875 L 0.25 -6.046875 L 0.25 -7.515625 Z M 6.0625 -7.515625 "/></g></g><g style="fill:#191919;fill-opacity:1;"><g transform="translate(68.379195, 111.874625)"><path style="stroke:none" d="M 2.46875 -7.515625 L 2.46875 -3.015625 C 2.46875 -2.566406 2.578125 -2.21875 2.796875 -1.96875 C 3.015625 -1.726562 3.335938 -1.609375 3.765625 -1.609375 C 4.191406 -1.609375 4.519531 -1.726562 4.75 -1.96875 C 4.976562 -2.21875 5.09375 -2.566406 5.09375 -3.015625 L 5.09375 -7.515625 L 6.921875 -7.515625 L 6.921875 -3.03125 C 6.921875 -2.351562 6.773438 -1.78125 6.484375 -1.3125 C 6.203125 -0.851562 5.820312 -0.503906 5.34375 -0.265625 C 4.863281 -0.0351562 4.328125 0.078125 3.734375 0.078125 C 3.140625 0.078125 2.609375 -0.0351562 2.140625 -0.265625 C 1.671875 -0.503906 1.300781 -0.851562 1.03125 -1.3125 C 0.757812 -1.78125 0.625 -2.351562 0.625 -3.03125 L 0.625 -7.515625 Z M 2.46875 -7.515625 "/></g></g><g style="fill:#191919;fill-opacity:1;"><g transform="translate(76.692709, 111.874625)"><path style="stroke:none" d=""/></g></g><g style="fill:#5271ff;fill-opacity:1;"><g transform="translate(79.739481, 111.874625)"><path style="stroke:none" d="M 0.421875 -1.46875 C 0.660156 -1.65625 0.769531 -1.742188 0.75 -1.734375 C 1.445312 -2.304688 1.992188 -2.78125 2.390625 -3.15625 C 2.796875 -3.53125 3.140625 -3.921875 3.421875 -4.328125 C 3.703125 -4.734375 3.84375 -5.128906 3.84375 -5.515625 C 3.84375 -5.804688 3.773438 -6.03125 3.640625 -6.1875 C 3.503906 -6.351562 3.300781 -6.4375 3.03125 -6.4375 C 2.757812 -6.4375 2.546875 -6.332031 2.390625 -6.125 C 2.234375 -5.925781 2.15625 -5.644531 2.15625 -5.28125 L 0.390625 -5.28125 C 0.410156 -5.882812 0.539062 -6.390625 0.78125 -6.796875 C 1.03125 -7.203125 1.351562 -7.5 1.75 -7.6875 C 2.15625 -7.882812 2.609375 -7.984375 3.109375 -7.984375 C 3.953125 -7.984375 4.585938 -7.765625 5.015625 -7.328125 C 5.453125 -6.890625 5.671875 -6.320312 5.671875 -5.625 C 5.671875 -4.863281 5.410156 -4.15625 4.890625 -3.5 C 4.367188 -2.851562 3.707031 -2.21875 2.90625 -1.59375 L 5.796875 -1.59375 L 5.796875 -0.109375 L 0.421875 -0.109375 Z M 0.421875 -1.46875 "/></g></g><g style="fill:#5271ff;fill-opacity:1;"><g transform="translate(86.619302, 111.874625)"><path style="stroke:none" d="M 0.484375 -4.015625 C 0.484375 -5.242188 0.71875 -6.207031 1.1875 -6.90625 C 1.664062 -7.613281 2.429688 -7.96875 3.484375 -7.96875 C 4.546875 -7.96875 5.3125 -7.613281 5.78125 -6.90625 C 6.257812 -6.207031 6.5 -5.242188 6.5 -4.015625 C 6.5 -2.773438 6.257812 -1.800781 5.78125 -1.09375 C 5.3125 -0.382812 4.546875 -0.03125 3.484375 -0.03125 C 2.429688 -0.03125 1.664062 -0.382812 1.1875 -1.09375 C 0.71875 -1.800781 0.484375 -2.773438 0.484375 -4.015625 Z M 4.703125 -4.015625 C 4.703125 -4.734375 4.625 -5.285156 4.46875 -5.671875 C 4.3125 -6.066406 3.984375 -6.265625 3.484375 -6.265625 C 2.992188 -6.265625 2.671875 -6.066406 2.515625 -5.671875 C 2.359375 -5.285156 2.28125 -4.734375 2.28125 -4.015625 C 2.28125 -3.523438 2.304688 -3.117188 2.359375 -2.796875 C 2.421875 -2.484375 2.535156 -2.226562 2.703125 -2.03125 C 2.878906 -1.84375 3.140625 -1.75 3.484375 -1.75 C 3.828125 -1.75 4.085938 -1.84375 4.265625 -2.03125 C 4.441406 -2.226562 4.554688 -2.484375 4.609375 -2.796875 C 4.671875 -3.117188 4.703125 -3.523438 4.703125 -4.015625 Z M 4.703125 -4.015625 "/></g></g><g style="fill:#5271ff;fill-opacity:1;"><g transform="translate(94.365762, 111.874625)"><path style="stroke:none" d="M 0.421875 -1.46875 C 0.660156 -1.65625 0.769531 -1.742188 0.75 -1.734375 C 1.445312 -2.304688 1.992188 -2.78125 2.390625 -3.15625 C 2.796875 -3.53125 3.140625 -3.921875 3.421875 -4.328125 C 3.703125 -4.734375 3.84375 -5.128906 3.84375 -5.515625 C 3.84375 -5.804688 3.773438 -6.03125 3.640625 -6.1875 C 3.503906 -6.351562 3.300781 -6.4375 3.03125 -6.4375 C 2.757812 -6.4375 2.546875 -6.332031 2.390625 -6.125 C 2.234375 -5.925781 2.15625 -5.644531 2.15625 -5.28125 L 0.390625 -5.28125 C 0.410156 -5.882812 0.539062 -6.390625 0.78125 -6.796875 C 1.03125 -7.203125 1.351562 -7.5 1.75 -7.6875 C 2.15625 -7.882812 2.609375 -7.984375 3.109375 -7.984375 C 3.953125 -7.984375 4.585938 -7.765625 5.015625 -7.328125 C 5.453125 -6.890625 5.671875 -6.320312 5.671875 -5.625 C 5.671875 -4.863281 5.410156 -4.15625 4.890625 -3.5 C 4.367188 -2.851562 3.707031 -2.21875 2.90625 -1.59375 L 5.796875 -1.59375 L 5.796875 -0.109375 L 0.421875 -0.109375 Z M 0.421875 -1.46875 "/></g></g><g style="fill:#5271ff;fill-opacity:1;"><g transform="translate(101.245583, 111.874625)"><path style="stroke:none" d="M 5.984375 -6.21875 L 2.640625 -6.21875 L 2.640625 -4.734375 C 2.785156 -4.898438 2.984375 -5.03125 3.234375 -5.125 C 3.492188 -5.226562 3.773438 -5.28125 4.078125 -5.28125 C 4.609375 -5.28125 5.050781 -5.15625 5.40625 -4.90625 C 5.757812 -4.664062 6.019531 -4.351562 6.1875 -3.96875 C 6.351562 -3.582031 6.4375 -3.164062 6.4375 -2.71875 C 6.4375 -1.882812 6.195312 -1.222656 5.71875 -0.734375 C 5.25 -0.242188 4.585938 0 3.734375 0 C 3.160156 0 2.660156 -0.0976562 2.234375 -0.296875 C 1.816406 -0.492188 1.492188 -0.765625 1.265625 -1.109375 C 1.046875 -1.460938 0.925781 -1.867188 0.90625 -2.328125 L 2.6875 -2.328125 C 2.726562 -2.097656 2.832031 -1.910156 3 -1.765625 C 3.164062 -1.617188 3.390625 -1.546875 3.671875 -1.546875 C 4.003906 -1.546875 4.253906 -1.648438 4.421875 -1.859375 C 4.585938 -2.078125 4.671875 -2.367188 4.671875 -2.734375 C 4.671875 -3.078125 4.582031 -3.34375 4.40625 -3.53125 C 4.238281 -3.71875 3.988281 -3.8125 3.65625 -3.8125 C 3.414062 -3.8125 3.21875 -3.75 3.0625 -3.625 C 2.90625 -3.507812 2.800781 -3.359375 2.75 -3.171875 L 0.984375 -3.171875 L 0.984375 -7.828125 L 5.984375 -7.828125 Z M 5.984375 -6.21875 "/></g></g></g></svg>