<svg xmlns="http://www.w3.org/2000/svg" xmlns:xlink="http://www.w3.org/1999/xlink" width="50" zoomAndPan="magnify" viewBox="0 0 37.5 37.499999" height="50" preserveAspectRatio="xMidYMid meet" version="1.2"><defs><clipPath id="4693ae80fd"><path d="M 10.617188 10 L 23.203125 10 L 23.203125 35.984375 L 10.617188 35.984375 Z M 10.617188 10 "/></clipPath><clipPath id="866e486225"><path d="M 15 1.199219 L 23.203125 1.199219 L 23.203125 10 L 15 10 Z M 15 1.199219 "/></clipPath></defs><g id="adccbc0180"><g clip-rule="nonzero" clip-path="url(#4693ae80fd)"><path style=" stroke:none;fill-rule:evenodd;fill:#5271ff;fill-opacity:1;" d="M 23.1875 18.605469 L 23.1875 35.800781 L 23.160156 35.800781 C 18.808594 35.800781 15.269531 32.253906 15.269531 27.902344 L 15.269531 18.644531 L 10.632812 18.644531 L 10.632812 18.621094 C 10.632812 14.269531 14.179688 10.722656 18.523438 10.722656 L 23.1875 10.722656 L 23.1875 18.613281 Z M 23.1875 18.605469 "/></g><g clip-rule="nonzero" clip-path="url(#866e486225)"><path style=" stroke:none;fill-rule:nonzero;fill:#5271ff;fill-opacity:1;" d="M 15.269531 1.199219 L 23.1875 1.199219 L 23.1875 9.121094 L 15.269531 9.121094 Z M 15.269531 1.199219 "/></g></g></svg>