<svg xmlns="http://www.w3.org/2000/svg" xmlns:xlink="http://www.w3.org/1999/xlink" width="100" zoomAndPan="magnify" viewBox="0 0 75 149.999998" height="200" preserveAspectRatio="xMidYMid meet" version="1.2"><defs><clipPath id="1b8cf15ad1"><path d="M 7.5 45 L 54 45 L 54 139 L 7.5 139 Z M 7.5 45 "/></clipPath><clipPath id="97f96e44c3"><path d="M 24 10.765625 L 54 10.765625 L 54 41 L 24 41 Z M 24 10.765625 "/></clipPath></defs><g id="796c548c29"><g clip-rule="nonzero" clip-path="url(#1b8cf15ad1)"><path style=" stroke:none;fill-rule:evenodd;fill:#5271ff;fill-opacity:1;" d="M 53.941406 75.09375 L 53.941406 138.644531 L 53.851562 138.644531 C 37.769531 138.644531 24.691406 125.539062 24.691406 109.457031 L 24.691406 75.246094 L 7.558594 75.246094 L 7.558594 75.15625 C 7.558594 59.074219 20.664062 45.964844 36.714844 45.964844 L 53.941406 45.964844 L 53.941406 75.125 Z M 53.941406 75.09375 "/></g><g clip-rule="nonzero" clip-path="url(#97f96e44c3)"><path style=" stroke:none;fill-rule:nonzero;fill:#5271ff;fill-opacity:1;" d="M 24.691406 10.765625 L 53.941406 10.765625 L 53.941406 40.046875 L 24.691406 40.046875 Z M 24.691406 10.765625 "/></g></g></svg>